<?xml version="1.0" encoding="iso-8859-1"?>
<!-- Uploaded to: SVG Repo, www.svgrepo.com, Generator: SVG Repo Mixer Tools -->
<svg height="800px" width="800px" version="1.1" id="Layer_1" xmlns="http://www.w3.org/2000/svg" xmlns:xlink="http://www.w3.org/1999/xlink" 
	 viewBox="0 0 509 509" xml:space="preserve">
<circle style="fill:#4B5AA7;" cx="254.5" cy="254.5" r="254.5"/>
<g>
	<polygon style="fill:#DEDEDF;" points="238.6,400.5 157.7,450.1 157.7,477.3 254.5,454.7 254.5,413.8 	"/>
	<polygon style="fill:#DEDEDF;" points="270.4,400.5 351.3,450.1 351.3,477.3 254.5,454.7 254.5,413.8 	"/>
</g>
<g>
	<path style="fill:#F1F3F7;" d="M186.3,214.8h-19.9c-2.3,0-4.2-1.9-4.2-4.2v-44.1h28.3v44.1C190.5,212.9,188.6,214.8,186.3,214.8z"
		/>
	<path style="fill:#F1F3F7;" d="M125.2,251.5h-19.9c-2.3,0-4.2-1.9-4.2-4.2v-44.1h28.3v44.1C129.4,249.6,127.6,251.5,125.2,251.5z"
		/>
	<path style="fill:#F1F3F7;" d="M322.7,214.8h19.9c2.3,0,4.2-1.9,4.2-4.2v-44.1h-28.3v44.1C318.5,212.9,320.4,214.8,322.7,214.8z"/>
	<path style="fill:#F1F3F7;" d="M383.8,251.5h19.9c2.3,0,4.2-1.9,4.2-4.2v-44.1h-28.3v44.1C379.6,249.6,381.4,251.5,383.8,251.5z"/>
</g>
<g>
	<polygon style="fill:#DEDEDF;" points="226.5,162.1 43.9,287.5 43.9,320.3 232.3,276 	"/>
	<polygon style="fill:#DEDEDF;" points="282.5,162.1 465.1,287.5 465.1,320.3 276.7,276 	"/>
</g>
<path style="fill:#F1F3F7;" d="M254.5,11.4c-22.3,0-35.2,62.6-35.2,62.6s0,215.2,0,247.8c0,91.1,26.1,132.9,35.2,132.9
	c9.5,0,35.2-43.1,35.2-132.9c0-32.6,0-247.8,0-247.8S276.8,11.4,254.5,11.4z"/>
<path style="fill:#6EB1E1;" d="M254.5,60.3c11.9,0,22.3,4.9,28.6,12.3c-1.4-14.5-13.7-25.9-28.6-25.9s-27.2,11.4-28.6,25.9
	C232.2,65.2,242.6,60.3,254.5,60.3z"/>
<path style="fill:#BDBDBE;" d="M254.5,369.1c-3.4,0-6.1,2.7-6.1,6.1v90.7c0,3.4,2.7,6.1,6.1,6.1c3.4,0,6.1-2.7,6.1-6.1v-90.7
	C260.6,371.9,257.9,369.1,254.5,369.1z"/>
</svg>