<?xml version="1.0" encoding="iso-8859-1"?>
<!-- Uploaded to: SVG Repo, www.svgrepo.com, Generator: SVG Repo Mixer Tools -->
<svg height="800px" width="800px" version="1.1" id="Layer_1" xmlns="http://www.w3.org/2000/svg" xmlns:xlink="http://www.w3.org/1999/xlink" 
	 viewBox="0 0 508 508" xml:space="preserve">
<circle style="fill:#90DFAA;" cx="254" cy="254" r="254"/>
<path style="fill:#FFFFFF;" d="M409.2,415.2H98.8c-10.8,0-20-8.8-20-20V112.8c0-10.8,8.8-20,20-20h310.8c10.8,0,20,8.8,20,20v282.8
	C429.2,406.4,420.4,415.2,409.2,415.2z"/>
<path style="fill:#324A5E;" d="M429.2,153.2v-40.8c0-10.8-8.8-19.6-19.6-19.6H98.4c-10.8,0-19.6,8.8-19.6,19.6v40.8H429.2z"/>
<g>
	<path style="fill:#54C0EB;" d="M153.2,242h-30c-6,0-11.2-5.2-11.2-11.2v-30c0-6,5.2-11.2,11.2-11.2h30c6,0,11.2,5.2,11.2,11.2v30
		C164.4,236.8,159.6,242,153.2,242z M123.2,196c-2.4,0-4.4,2-4.4,4.4v30c0,2.4,2,4.4,4.4,4.4h30c2.4,0,4.4-2,4.4-4.4v-30
		c0-2.4-2-4.4-4.4-4.4H123.2z"/>
	<path style="fill:#54C0EB;" d="M230.4,242h-30c-6,0-11.2-5.2-11.2-11.2v-30c0-6,5.2-11.2,11.2-11.2h30c6,0,11.2,5.2,11.2,11.2v30
		C241.6,236.8,236.8,242,230.4,242z M200.4,196c-2.4,0-4.4,2-4.4,4.4v30c0,2.4,2,4.4,4.4,4.4h30c2.4,0,4.4-2,4.4-4.4v-30
		c0-2.4-2-4.4-4.4-4.4H200.4z"/>
	<path style="fill:#54C0EB;" d="M307.6,242h-30c-6,0-11.2-5.2-11.2-11.2v-30c0-6,5.2-11.2,11.2-11.2h30c6,0,11.2,5.2,11.2,11.2v30
		C318.8,236.8,314,242,307.6,242z M277.6,196c-2.4,0-4.4,2-4.4,4.4v30c0,2.4,2,4.4,4.4,4.4h30c2.4,0,4.4-2,4.4-4.4v-30
		c0-2.4-2-4.4-4.4-4.4H277.6z"/>
	<path style="fill:#54C0EB;" d="M389.2,210v20.8c0,2.4-2,4.4-4.4,4.4h-30.4c-2.4,0-4.4-2-4.4-4.4v-30c0-2.4,2-4.4,4.4-4.4h30.4
		c2.4,0,4.4,2,4.4,4.4l5.2-5.2c-2-3.6-5.6-5.6-9.6-5.6h-30.4c-6,0-11.2,4.8-11.2,11.2v30c0,6,5.2,11.2,11.2,11.2h30.4
		c6,0,11.2-5.2,11.2-11.2v-27.6L389.2,210z"/>
	<path style="fill:#54C0EB;" d="M153.2,313.6h-30c-6,0-11.2-5.2-11.2-11.2v-30c0-6,5.2-11.2,11.2-11.2h30c6,0,11.2,5.2,11.2,11.2v30
		C164.4,308.4,159.6,313.6,153.2,313.6z M123.2,267.6c-2.4,0-4.4,2-4.4,4.4v30c0,2.4,2,4.4,4.4,4.4h30c2.4,0,4.4-2,4.4-4.4v-30
		c0-2.4-2-4.4-4.4-4.4H123.2z"/>
	<path style="fill:#54C0EB;" d="M234.8,283.2v19.2c0,2.4-2,4.4-4.4,4.4h-30c-2.4,0-4.4-2-4.4-4.4V272c0-2.4,2-4.4,4.4-4.4h30
		c2.4,0,4.4,2,4.4,4.4v1.6l6-6c-1.6-4-5.6-6.8-10.4-6.8h-30c-6,0-11.2,5.2-11.2,11.2v30.4c0,6,5.2,11.2,11.2,11.2h30
		c6,0,11.2-5.2,11.2-11.2v-26L234.8,283.2z"/>
	<path style="fill:#54C0EB;" d="M307.6,313.6h-30c-6,0-11.2-5.2-11.2-11.2v-30c0-6,5.2-11.2,11.2-11.2h30c6,0,11.2,5.2,11.2,11.2v30
		C318.8,308.4,314,313.6,307.6,313.6z M277.6,267.6c-2.4,0-4.4,2-4.4,4.4v30c0,2.4,2,4.4,4.4,4.4h30c2.4,0,4.4-2,4.4-4.4v-30
		c0-2.4-2-4.4-4.4-4.4H277.6z"/>
	<path style="fill:#54C0EB;" d="M384.8,313.6h-30c-6,0-11.2-5.2-11.2-11.2v-30c0-6,5.2-11.2,11.2-11.2h30c6,0,11.2,5.2,11.2,11.2v30
		C396,308.4,391.2,313.6,384.8,313.6z M354.8,267.6c-2.4,0-4.4,2-4.4,4.4v30c0,2.4,2,4.4,4.4,4.4h30c2.4,0,4.4-2,4.4-4.4v-30
		c0-2.4-2-4.4-4.4-4.4H354.8z"/>
	<path style="fill:#54C0EB;" d="M153.2,385.2h-30c-6,0-11.2-5.2-11.2-11.2v-30c0-6,5.2-11.2,11.2-11.2h30c6,0,11.2,5.2,11.2,11.2v30
		C164.4,380,159.6,385.2,153.2,385.2z M123.2,339.2c-2.4,0-4.4,2-4.4,4.4V374c0,2.4,2,4.4,4.4,4.4h30c2.4,0,4.4-2,4.4-4.4v-30
		c0-2.4-2-4.4-4.4-4.4h-30V339.2z"/>
	<path style="fill:#54C0EB;" d="M230.4,385.2h-30c-6,0-11.2-5.2-11.2-11.2v-30c0-6,5.2-11.2,11.2-11.2h30c6,0,11.2,5.2,11.2,11.2v30
		C241.6,380,236.8,385.2,230.4,385.2z M200.4,339.2c-2.4,0-4.4,2-4.4,4.4V374c0,2.4,2,4.4,4.4,4.4h30c2.4,0,4.4-2,4.4-4.4v-30
		c0-2.4-2-4.4-4.4-4.4h-30V339.2z"/>
	<path style="fill:#54C0EB;" d="M312,352.4V374c0,2.4-2,4.4-4.4,4.4h-30.4c-2.4,0-4.4-2-4.4-4.4v-30.4c0-2.4,2-4.4,4.4-4.4h30.4
		c2,0,4,1.6,4.4,3.2l5.2-5.2c-2-3.2-5.6-5.2-9.2-5.2h-30.4c-6,0-11.2,5.2-11.2,11.2V374c0,6,5.2,11.2,11.2,11.2H308
		c6,0,11.2-5.2,11.2-11.2v-28.4L312,352.4z"/>
	<path style="fill:#54C0EB;" d="M384.8,385.2h-30c-6,0-11.2-5.2-11.2-11.2v-30c0-6,5.2-11.2,11.2-11.2h30c6,0,11.2,5.2,11.2,11.2v30
		C396,380,391.2,385.2,384.8,385.2z M354.8,339.2c-2.4,0-4.4,2-4.4,4.4V374c0,2.4,2,4.4,4.4,4.4h30c2.4,0,4.4-2,4.4-4.4v-30
		c0-2.4-2-4.4-4.4-4.4h-30V339.2z"/>
</g>
<g>
	<path style="fill:#FF7058;" d="M371.2,223.2l-12-12c-1.2-1.2-1.2-3.6,0-4.8s3.6-1.2,4.8,0l9.6,9.6l37.6-37.6c1.2-1.2,3.6-1.2,4.8,0
		c1.2,1.2,1.2,3.6,0,4.8l-40,40C374.4,224.8,373.2,224.8,371.2,223.2z"/>
	<path style="fill:#FF7058;" d="M217.2,296.4l-12-12c-1.2-1.2-1.2-3.6,0-4.8c1.2-1.2,3.6-1.2,4.8,0l9.6,9.6l37.6-37.6
		c1.2-1.2,3.6-1.2,4.8,0s1.2,3.6,0,4.8l-40,40C220,298,218.8,297.6,217.2,296.4z"/>
	<path style="fill:#FF7058;" d="M291.6,368l-12-12c-1.2-1.2-1.2-3.6,0-4.8c1.2-1.2,3.6-1.2,4.8,0l9.6,9.6l37.6-37.6
		c1.2-1.2,3.6-1.2,4.8,0s1.2,3.6,0,4.8l-40,40C294.4,369.6,293.2,369.6,291.6,368z"/>
</g>
<g>
	<circle style="fill:#90DFAA;" cx="358.8" cy="124" r="17.6"/>
	<circle style="fill:#90DFAA;" cx="149.2" cy="124" r="17.6"/>
</g>
</svg>